<?xml version="1.0" encoding="UTF-8"?>
<svg id="Layer_2" data-name="Layer 2" xmlns="http://www.w3.org/2000/svg" viewBox="0 0 1259.72 322.88">
  <defs>
    <style>
      .cls-1 {
        fill: #fff;
      }

      .cls-2 {
        fill: #330006;
      }

      .cls-3 {
        fill: #f4313f;
      }
    </style>
  </defs>
  <g id="Logo_Type" data-name="Logo Type">
    <g id="Logo_Primer_Homade" data-name="Logo Primer Homade">
      <g id="Logo_Primer_-_white_font" data-name="Logo Primer - white font">
        <g id="Logotype">
          <g>
            <path class="cls-1" d="M354.33,305.99v-56.96h8.41v56.96h-8.41ZM362.09,291.57v-10.28h1.41l16.86-18.04h10.09l-19.31,20.68h-1.41l-7.65,7.65ZM381.24,305.99l-15.18-20.18,5.81-5.96,19.76,26.15h-10.4Z"/>
            <path class="cls-1" d="M417.51,305.99v-42.74h8.14v6.88h.46c.79-2.34,2.17-4.18,4.13-5.5,1.96-1.33,4.19-1.99,6.69-1.99.54,0,1.15.02,1.84.06s1.26.1,1.72.17v8.03c-.31-.1-.89-.2-1.76-.31-.87-.1-1.75-.15-2.64-.15-1.94,0-3.68.41-5.24,1.22-1.56.82-2.77,1.94-3.63,3.38-.87,1.44-1.3,3.1-1.3,4.99v25.96h-8.41Z"/>
            <path class="cls-1" d="M484.14,306.87c-4.2,0-7.84-.9-10.89-2.71-3.06-1.81-5.41-4.36-7.05-7.65-1.64-3.29-2.47-7.15-2.47-11.58s.81-8.24,2.43-11.58c1.62-3.34,3.91-5.94,6.86-7.82,2.96-1.87,6.42-2.81,10.4-2.81,2.45,0,4.8.4,7.07,1.2s4.31,2.06,6.12,3.77c1.81,1.71,3.24,3.92,4.3,6.63,1.06,2.71,1.59,6.01,1.59,9.88v2.98h-34.06v-6.27h29.74l-3.94,2.06c0-2.62-.41-4.94-1.22-6.94-.82-2-2.02-3.56-3.61-4.68-1.59-1.12-3.59-1.68-5.98-1.68s-4.4.57-6.08,1.72c-1.68,1.15-2.96,2.66-3.84,4.53-.88,1.87-1.32,3.92-1.32,6.14v4.28c0,2.93.5,5.41,1.51,7.44,1.01,2.03,2.41,3.55,4.22,4.59,1.81,1.03,3.91,1.55,6.31,1.55,1.58,0,3.01-.22,4.28-.67,1.27-.45,2.38-1.12,3.31-2.03.93-.9,1.64-2.02,2.12-3.34l7.91,1.87c-.69,2.19-1.84,4.13-3.46,5.81-1.62,1.68-3.63,2.99-6.04,3.92-2.41.93-5.14,1.4-8.2,1.4Z"/>
            <path class="cls-1" d="M543.85,306.94c-2.7,0-5.15-.5-7.34-1.51-2.19-1.01-3.93-2.48-5.2-4.42-1.27-1.94-1.91-4.31-1.91-7.11,0-2.42.46-4.41,1.4-5.96.93-1.55,2.19-2.79,3.78-3.71,1.59-.92,3.36-1.61,5.31-2.06,1.95-.46,3.93-.8,5.94-1.03,2.52-.31,4.57-.55,6.16-.75,1.58-.19,2.75-.51,3.5-.96.75-.45,1.13-1.17,1.13-2.16v-.23c0-1.61-.31-2.96-.92-4.05-.61-1.1-1.52-1.94-2.73-2.54-1.21-.6-2.72-.9-4.53-.9s-3.46.29-4.8.86c-1.34.57-2.42,1.31-3.25,2.2-.83.89-1.45,1.82-1.85,2.79l-7.91-2.06c.97-2.55,2.36-4.6,4.17-6.15,1.81-1.55,3.89-2.69,6.23-3.4,2.34-.71,4.77-1.07,7.26-1.07,1.73,0,3.57.2,5.51.61,1.94.41,3.76,1.15,5.47,2.22,1.71,1.07,3.1,2.57,4.17,4.51,1.07,1.94,1.61,4.46,1.61,7.57v28.37h-8.14v-5.85h-.42c-.56,1.1-1.39,2.17-2.49,3.21-1.1,1.05-2.48,1.91-4.15,2.58-1.67.68-3.66,1.01-5.98,1.01ZM545.72,300.18c2.29,0,4.26-.45,5.89-1.34,1.63-.89,2.88-2.08,3.75-3.56.87-1.48,1.3-3.05,1.3-4.7v-5.47c-.31.31-.89.58-1.74.82-.85.24-1.83.46-2.92.65-1.1.19-2.15.35-3.17.48-1.02.13-1.86.23-2.52.31-1.58.2-3.03.55-4.34,1.03-1.31.48-2.36,1.17-3.13,2.06-.78.89-1.17,2.08-1.17,3.55,0,1.35.35,2.49,1.05,3.4.7.92,1.65,1.61,2.85,2.06,1.2.46,2.59.69,4.17.69Z"/>
            <path class="cls-1" d="M614.03,263.25v6.84h-23.17v-6.84h23.17ZM597.1,253.08h8.41v41.36c0,1.71.36,2.96,1.09,3.77s1.92,1.2,3.57,1.2c.43,0,1.01-.05,1.72-.15.71-.1,1.32-.2,1.84-.31l1.49,6.73c-.89.31-1.85.53-2.87.67-1.02.14-2.03.21-3.02.21-3.87,0-6.88-1-9.02-3-2.14-2-3.21-4.81-3.21-8.43v-42.05Z"/>
            <rect class="cls-1" x="641.82" y="263.25" width="8.41" height="42.74"/>
            <path class="cls-1" d="M702.14,263.25v6.84h-26.07v-6.84h26.07ZM684.17,305.99v-47.63c0-2.65.59-4.87,1.78-6.65,1.19-1.78,2.75-3.12,4.68-4.01,1.94-.89,4.03-1.34,6.27-1.34,1.71,0,3.17.14,4.38.42,1.21.28,2.1.52,2.66.73l-1.95,6.8c-.41-.13-.91-.26-1.51-.4-.6-.14-1.34-.21-2.24-.21-1.99,0-3.43.5-4.32,1.49-.89.99-1.34,2.43-1.34,4.32v46.48h-8.41Z"/>
            <path class="cls-1" d="M788.64,263.25v6.84h-23.17v-6.84h23.17ZM771.71,253.08h8.41v41.36c0,1.71.36,2.96,1.09,3.77.73.8,1.92,1.2,3.57,1.2.43,0,1.01-.05,1.72-.15.71-.1,1.32-.2,1.84-.31l1.49,6.73c-.89.31-1.85.53-2.87.67-1.02.14-2.03.21-3.02.21-3.87,0-6.88-1-9.02-3-2.14-2-3.21-4.81-3.21-8.43v-42.05Z"/>
            <path class="cls-1" d="M834.09,306.87c-4.2,0-7.84-.9-10.89-2.71-3.06-1.81-5.41-4.36-7.05-7.65-1.64-3.29-2.47-7.15-2.47-11.58s.81-8.24,2.43-11.58c1.62-3.34,3.91-5.94,6.86-7.82,2.96-1.87,6.42-2.81,10.4-2.81,2.45,0,4.8.4,7.07,1.2s4.31,2.06,6.12,3.77c1.81,1.71,3.24,3.92,4.3,6.63,1.06,2.71,1.59,6.01,1.59,9.88v2.98h-34.06v-6.27h29.74l-3.94,2.06c0-2.62-.41-4.94-1.22-6.94-.82-2-2.02-3.56-3.61-4.68-1.59-1.12-3.59-1.68-5.98-1.68s-4.4.57-6.08,1.72c-1.68,1.15-2.96,2.66-3.84,4.53-.88,1.87-1.32,3.92-1.32,6.14v4.28c0,2.93.5,5.41,1.51,7.44,1.01,2.03,2.41,3.55,4.22,4.59,1.81,1.03,3.91,1.55,6.31,1.55,1.58,0,3.01-.22,4.28-.67,1.27-.45,2.38-1.12,3.31-2.03.93-.9,1.64-2.02,2.12-3.34l7.91,1.87c-.69,2.19-1.84,4.13-3.46,5.81-1.62,1.68-3.63,2.99-6.04,3.92-2.41.93-5.14,1.4-8.2,1.4Z"/>
            <path class="cls-1" d="M881.07,305.99v-56.96h8.41v56.96h-8.41ZM888.83,291.57v-10.28h1.41l16.86-18.04h10.09l-19.31,20.68h-1.41l-7.65,7.65ZM907.98,305.99l-15.18-20.18,5.81-5.96,19.76,26.15h-10.4Z"/>
            <path class="cls-1" d="M952.67,280.68v25.31h-8.41v-42.74h8.03l.08,10.47h-.88c1.25-3.82,3.06-6.61,5.43-8.37,2.37-1.76,5.24-2.64,8.6-2.64,2.91,0,5.44.61,7.61,1.83,2.17,1.22,3.86,3.03,5.08,5.41,1.22,2.38,1.84,5.35,1.84,8.89v27.14h-8.41v-26.11c0-3.08-.8-5.49-2.41-7.23-1.61-1.73-3.81-2.6-6.61-2.6-1.89,0-3.58.41-5.08,1.24-1.5.83-2.69,2.03-3.56,3.61-.87,1.58-1.3,3.5-1.3,5.77Z"/>
            <path class="cls-1" d="M1028.74,306.87c-4,0-7.5-.92-10.49-2.75-3-1.84-5.32-4.41-6.98-7.72-1.66-3.31-2.48-7.16-2.48-11.54s.83-8.31,2.48-11.64,3.98-5.91,6.98-7.74c2.99-1.84,6.49-2.75,10.49-2.75s7.54.92,10.53,2.75c2.99,1.84,5.32,4.42,6.98,7.74,1.66,3.33,2.48,7.21,2.48,11.64s-.83,8.23-2.48,11.54c-1.66,3.31-3.98,5.89-6.98,7.72-3,1.84-6.51,2.75-10.53,2.75ZM1028.74,299.76c2.6,0,4.75-.68,6.44-2.05,1.69-1.36,2.96-3.17,3.78-5.43.83-2.26,1.24-4.73,1.24-7.44s-.41-5.23-1.24-7.51-2.09-4.1-3.78-5.47c-1.7-1.36-3.84-2.05-6.44-2.05s-4.7.68-6.38,2.05c-1.68,1.36-2.94,3.18-3.77,5.45-.83,2.27-1.24,4.78-1.24,7.53s.41,5.18,1.24,7.44c.83,2.26,2.08,4.06,3.77,5.43,1.68,1.36,3.81,2.05,6.38,2.05Z"/>
            <path class="cls-1" d="M1085.88,249.03v56.96h-8.41v-56.96h8.41Z"/>
            <path class="cls-1" d="M1134.58,306.87c-4,0-7.5-.92-10.49-2.75-3-1.84-5.32-4.41-6.98-7.72-1.66-3.31-2.48-7.16-2.48-11.54s.83-8.31,2.48-11.64,3.98-5.91,6.98-7.74c2.99-1.84,6.49-2.75,10.49-2.75s7.54.92,10.53,2.75c2.99,1.84,5.32,4.42,6.98,7.74,1.66,3.33,2.48,7.21,2.48,11.64s-.83,8.23-2.48,11.54c-1.66,3.31-3.98,5.89-6.98,7.72-3,1.84-6.51,2.75-10.53,2.75ZM1134.58,299.76c2.6,0,4.75-.68,6.44-2.05,1.69-1.36,2.96-3.17,3.78-5.43.83-2.26,1.24-4.73,1.24-7.44s-.41-5.23-1.24-7.51-2.09-4.1-3.78-5.47c-1.7-1.36-3.84-2.05-6.44-2.05s-4.7.68-6.38,2.05c-1.68,1.36-2.94,3.18-3.77,5.45-.83,2.27-1.24,4.78-1.24,7.53s.41,5.18,1.24,7.44c.83,2.26,2.08,4.06,3.77,5.43,1.68,1.36,3.81,2.05,6.38,2.05Z"/>
            <path class="cls-1" d="M1201.17,322.88c-3.29,0-6.14-.42-8.56-1.26-2.42-.84-4.42-1.96-5.98-3.36-1.57-1.4-2.76-2.96-3.57-4.66l7.03-3.33c.51.82,1.19,1.68,2.04,2.58.85.9,2.01,1.68,3.46,2.31,1.45.64,3.31.96,5.58.96,3.26,0,5.91-.77,7.93-2.31,2.03-1.54,3.04-3.96,3.04-7.24v-8.33h-.73c-.51.94-1.22,1.96-2.12,3.06-.9,1.1-2.17,2.05-3.78,2.85-1.62.8-3.73,1.2-6.33,1.2-3.36,0-6.39-.79-9.08-2.37-2.69-1.58-4.82-3.92-6.4-7.03-1.58-3.11-2.37-6.93-2.37-11.47s.78-8.43,2.35-11.68,3.71-5.74,6.42-7.47c2.71-1.73,5.78-2.6,9.19-2.6,2.62,0,4.76.43,6.4,1.3,1.64.87,2.93,1.89,3.86,3.08.93,1.18,1.64,2.22,2.12,3.12h.61v-6.96h8.22v43.35c0,3.75-.85,6.82-2.54,9.23-1.7,2.41-4,4.19-6.92,5.33-2.92,1.15-6.21,1.72-9.88,1.72ZM1201.13,298.34c2.4,0,4.42-.55,6.06-1.66,1.64-1.11,2.89-2.71,3.73-4.82.84-2.1,1.26-4.61,1.26-7.51s-.42-5.4-1.26-7.57c-.84-2.17-2.08-3.86-3.73-5.08s-3.66-1.83-6.06-1.83-4.54.64-6.19,1.93c-1.66,1.29-2.91,3.02-3.75,5.2s-1.26,4.63-1.26,7.36.42,5.22,1.26,7.32c.84,2.1,2.1,3.74,3.77,4.91,1.67,1.17,3.73,1.76,6.17,1.76Z"/>
            <rect class="cls-1" x="1251.24" y="263.25" width="8.41" height="42.74"/>
          </g>
          <g>
            <path class="cls-1" d="M380.27,97.63v78.05h-25.94V0h25.7v76.17h-3.42c3.85-11.79,9.43-20.4,16.74-25.82,7.31-5.42,16.15-8.13,26.53-8.13,8.96,0,16.8,1.89,23.52,5.66s11.95,9.34,15.68,16.68c3.73,7.35,5.6,16.49,5.6,27.41v83.71h-25.94v-80.53c0-9.51-2.48-16.94-7.43-22.28-4.95-5.34-11.75-8.02-20.4-8.02-5.82,0-11.04,1.28-15.68,3.83-4.64,2.56-8.29,6.27-10.97,11.14-2.67,4.87-4.01,10.81-4.01,17.8Z"/>
            <path class="cls-1" d="M555,178.39c-12.34,0-23.13-2.83-32.36-8.49-9.24-5.66-16.41-13.6-21.52-23.82-5.11-10.22-7.66-22.09-7.66-35.61s2.55-25.64,7.66-35.9c5.11-10.26,12.28-18.22,21.52-23.87,9.23-5.66,20.02-8.49,32.36-8.49s23.25,2.83,32.48,8.49c9.23,5.66,16.41,13.62,21.52,23.87,5.11,10.26,7.66,22.23,7.66,35.9s-2.56,25.39-7.66,35.61c-5.11,10.22-12.29,18.16-21.52,23.82-9.24,5.66-20.06,8.49-32.48,8.49ZM555,156.46c8.02,0,14.64-2.1,19.87-6.31,5.23-4.2,9.12-9.79,11.67-16.74,2.55-6.96,3.83-14.6,3.83-22.93s-1.28-16.13-3.83-23.17c-2.55-7.03-6.45-12.66-11.67-16.86-5.23-4.2-11.85-6.31-19.87-6.31s-14.5,2.1-19.69,6.31c-5.19,4.21-9.06,9.81-11.62,16.8-2.55,7-3.83,14.74-3.83,23.23s1.27,15.98,3.83,22.93c2.55,6.96,6.43,12.54,11.62,16.74,5.19,4.21,11.75,6.31,19.69,6.31Z"/>
            <path class="cls-1" d="M645.43,175.68V43.86h24.64l.71,30.54h-2c1.89-7.47,4.79-13.6,8.72-18.39,3.93-4.79,8.53-8.39,13.8-10.79s10.77-3.6,16.51-3.6c9.59,0,17.33,2.97,23.23,8.9,5.9,5.94,9.86,14.21,11.91,24.82h-3.3c1.73-7.23,4.71-13.36,8.96-18.39,4.24-5.03,9.37-8.84,15.39-11.44s12.44-3.89,19.28-3.89c7.78,0,14.83,1.69,21.16,5.07,6.32,3.38,11.34,8.41,15.03,15.09,3.69,6.68,5.54,15.01,5.54,25v88.9h-25.94v-86.31c0-8.8-2.46-15.17-7.37-19.1-4.91-3.93-10.71-5.9-17.39-5.9-5.42,0-10.1,1.14-14.03,3.42s-6.95,5.44-9.08,9.49c-2.12,4.05-3.18,8.71-3.18,13.97v84.42h-25.58v-87.96c0-7.07-2.26-12.73-6.78-16.98-4.52-4.24-10.28-6.37-17.27-6.37-4.79,0-9.25,1.12-13.38,3.36-4.13,2.24-7.43,5.54-9.9,9.9s-3.71,9.73-3.71,16.09v81.95h-25.94Z"/>
            <path class="cls-1" d="M896.81,178.63c-8.33,0-15.88-1.55-22.64-4.66-6.76-3.1-12.11-7.64-16.04-13.62s-5.9-13.28-5.9-21.93c0-7.47,1.43-13.6,4.3-18.39,2.87-4.79,6.76-8.61,11.67-11.44,4.91-2.83,10.38-4.95,16.39-6.37,6.01-1.42,12.12-2.48,18.33-3.18,7.78-.94,14.11-1.71,18.99-2.3,4.87-.59,8.47-1.57,10.79-2.95,2.32-1.37,3.48-3.6,3.48-6.66v-.71c0-4.95-.94-9.12-2.83-12.5-1.89-3.38-4.7-5.99-8.43-7.84-3.73-1.85-8.39-2.77-13.97-2.77s-10.67.88-14.8,2.65c-4.13,1.77-7.47,4.03-10.02,6.78-2.56,2.75-4.46,5.62-5.72,8.61l-24.4-6.37c2.98-7.86,7.27-14.19,12.85-18.98,5.58-4.79,11.99-8.29,19.22-10.49,7.23-2.2,14.7-3.3,22.4-3.3,5.34,0,11.01.63,16.98,1.89,5.97,1.26,11.59,3.54,16.86,6.84,5.26,3.3,9.55,7.94,12.85,13.91,3.3,5.97,4.95,13.76,4.95,23.35v87.49h-25.11v-18.04h-1.3c-1.73,3.38-4.29,6.68-7.66,9.9-3.38,3.23-7.64,5.88-12.79,7.96-5.15,2.08-11.3,3.13-18.45,3.13ZM902.59,157.76c7.07,0,13.12-1.37,18.16-4.13,5.03-2.75,8.88-6.41,11.55-10.97,2.67-4.56,4.01-9.39,4.01-14.5v-16.86c-.94.94-2.73,1.79-5.36,2.54-2.64.75-5.64,1.42-9.02,2-3.38.59-6.64,1.08-9.79,1.47-3.14.39-5.74.71-7.78.94-4.88.63-9.34,1.69-13.38,3.18-4.05,1.49-7.27,3.62-9.67,6.37-2.4,2.75-3.6,6.41-3.6,10.96,0,4.17,1.08,7.66,3.24,10.49,2.16,2.83,5.09,4.95,8.78,6.37s7.98,2.12,12.85,2.12Z"/>
            <path class="cls-1" d="M1046.08,178.27c-10.69,0-20.2-2.73-28.53-8.2-8.33-5.46-14.86-13.28-19.57-23.46-4.72-10.18-7.08-22.34-7.08-36.49s2.4-26.53,7.19-36.67c4.79-10.14,11.35-17.88,19.69-23.23,8.33-5.35,17.76-8.02,28.3-8.02,8.18,0,14.76,1.36,19.75,4.07,4.99,2.71,8.9,5.88,11.73,9.49,2.83,3.62,4.99,6.8,6.49,9.55h1.41V0h25.94v175.68h-25.23v-20.63h-2.12c-1.5,2.83-3.7,6.05-6.61,9.67-2.91,3.62-6.88,6.78-11.91,9.49-5.03,2.71-11.52,4.07-19.46,4.07ZM1051.74,156.23c7.39,0,13.62-1.97,18.69-5.9s8.92-9.37,11.56-16.33c2.63-6.96,3.95-14.99,3.95-24.11s-1.3-17.19-3.89-23.99c-2.59-6.8-6.43-12.1-11.5-15.92-5.07-3.81-11.34-5.72-18.81-5.72s-13.97,2-19.04,6.01c-5.07,4.01-8.89,9.45-11.44,16.33s-3.83,14.64-3.83,23.29,1.3,16.59,3.89,23.58c2.59,7,6.44,12.54,11.55,16.62,5.11,4.09,11.39,6.13,18.86,6.13Z"/>
            <path class="cls-1" d="M1203.13,178.39c-12.97,0-24.17-2.79-33.6-8.37-9.43-5.58-16.69-13.44-21.75-23.58-5.07-10.14-7.61-22.05-7.61-35.72s2.5-25.43,7.49-35.73c4.99-10.3,12.04-18.33,21.16-24.11,9.11-5.78,19.81-8.67,32.07-8.67,7.55,0,14.82,1.24,21.81,3.71,6.99,2.48,13.28,6.35,18.87,11.61,5.58,5.27,10,12.09,13.26,20.46,3.26,8.37,4.89,18.53,4.89,30.48v9.2h-105.05v-19.34h91.73l-12.15,6.37c0-8.1-1.26-15.23-3.77-21.4-2.52-6.17-6.23-10.98-11.14-14.44-4.91-3.46-11.06-5.19-18.45-5.19s-13.56,1.77-18.74,5.31c-5.19,3.54-9.14,8.19-11.85,13.97-2.71,5.78-4.07,12.09-4.07,18.92v13.2c0,9.04,1.55,16.68,4.66,22.93,3.11,6.25,7.44,10.97,13.03,14.15,5.58,3.18,12.06,4.78,19.45,4.78,4.87,0,9.27-.69,13.21-2.06,3.93-1.37,7.33-3.46,10.2-6.25,2.87-2.79,5.05-6.23,6.55-10.32l24.4,5.78c-2.12,6.76-5.68,12.73-10.67,17.92-4.99,5.19-11.2,9.22-18.63,12.09-7.43,2.87-15.86,4.3-25.29,4.3Z"/>
          </g>
        </g>
        <g id="Logo">
          <path class="cls-3" d="M300.47,240.28l-8.32-14.42c-1.57-2.72-3.82-4.98-6.54-6.54l-39.83-22.99c-5.53-3.19-12.34-3.19-17.86,0l-114.57,66.15-8.93,5.18-59.69,34.46c-4.62,2.66-5.97,8.71-2.94,13.09h0c3.34,4.82,8.82,7.69,14.68,7.69h189.92c5.86,0,11.35-2.88,14.69-7.7l38.61-55.81c3.93-5.68,4.23-13.11.78-19.09Z"/>
          <path class="cls-3" d="M250.47,188.73c8.31,4.79,17.61-4.51,12.81-12.82h0s-4.47-7.75-4.47-7.75L166.89,8.93c-6.87-11.91-24.06-11.91-30.94,0l-20.22,35.01c-1.57,2.72-2.39,5.8-2.39,8.93v46.35c0,6.38,3.4,12.28,8.93,15.47l114.57,66.15h.04l8.57,4.97.32.21,4.7,2.71Z"/>
          <path class="cls-3" d="M104.41,247.01V98.91c0-9.7-12.83-13.14-17.68-4.74h0s-4.47,7.75-4.47,7.75L2.39,240.28c-3.45,5.98-3.15,13.42.78,19.1l18.53,26.76c5.29,7.64,15.56,9.95,23.62,5.3l50.16-28.95c5.53-3.19,8.93-9.09,8.93-15.47Z"/>
          <path class="cls-2" d="M196.33,178.07l-60.66-35.01c-5.95-3.44-13.4.86-13.4,7.74v70.02c0,6.87,7.44,11.17,13.4,7.74l60.66-35.01c5.96-3.44,5.96-12.03,0-15.47Z"/>
        </g>
      </g>
    </g>
  </g>
</svg>